<mxfile host="Electron" modified="2024-07-14T22:14:36.790Z" agent="Mozilla/5.0 (Windows NT 10.0; Win64; x64) AppleWebKit/537.36 (KHTML, like Gecko) draw.io/24.6.4 Chrome/124.0.6367.207 Electron/30.0.6 Safari/537.36" etag="BjJHYRk9uN5KoXQ2BPvl" version="24.6.4" type="device">
  <diagram name="Page-1" id="2YBvvXClWsGukQMizWep">
    <mxGraphModel dx="1941" dy="688" grid="1" gridSize="10" guides="1" tooltips="1" connect="1" arrows="1" fold="1" page="1" pageScale="1" pageWidth="850" pageHeight="1100" math="0" shadow="0">
      <root>
        <mxCell id="0" />
        <mxCell id="1" parent="0" />
        <mxCell id="a_od3oIlMT-gAfjc796Y-1" value="" style="group" vertex="1" connectable="0" parent="1">
          <mxGeometry x="-599" y="49" width="18" height="474" as="geometry" />
        </mxCell>
        <mxCell id="a_od3oIlMT-gAfjc796Y-2" value="" style="endArrow=none;dashed=1;html=1;rounded=0;" edge="1" parent="a_od3oIlMT-gAfjc796Y-1">
          <mxGeometry width="50" height="50" relative="1" as="geometry">
            <mxPoint x="9" y="667" as="sourcePoint" />
            <mxPoint x="9" y="65" as="targetPoint" />
          </mxGeometry>
        </mxCell>
        <mxCell id="a_od3oIlMT-gAfjc796Y-3" value="User" style="shape=umlActor;verticalLabelPosition=bottom;verticalAlign=top;html=1;outlineConnect=0;" vertex="1" parent="a_od3oIlMT-gAfjc796Y-1">
          <mxGeometry width="18" height="39" as="geometry" />
        </mxCell>
        <mxCell id="rkL_ggENawP8vmdbbOm3-4" value="CommentController" style="shape=umlLifeline;perimeter=lifelinePerimeter;whiteSpace=wrap;html=1;container=0;dropTarget=0;collapsible=0;recursiveResize=0;outlineConnect=0;portConstraint=eastwest;newEdgeStyle={&quot;edgeStyle&quot;:&quot;elbowEdgeStyle&quot;,&quot;elbow&quot;:&quot;vertical&quot;,&quot;curved&quot;:0,&quot;rounded&quot;:0};fontStyle=4" parent="1" vertex="1">
          <mxGeometry x="-80" y="49" width="120" height="651" as="geometry" />
        </mxCell>
        <mxCell id="rkL_ggENawP8vmdbbOm3-5" value="" style="html=1;points=[];perimeter=orthogonalPerimeter;outlineConnect=0;targetShapes=umlLifeline;portConstraint=eastwest;newEdgeStyle={&quot;edgeStyle&quot;:&quot;elbowEdgeStyle&quot;,&quot;elbow&quot;:&quot;vertical&quot;,&quot;curved&quot;:0,&quot;rounded&quot;:0};fontStyle=4" parent="rkL_ggENawP8vmdbbOm3-4" vertex="1">
          <mxGeometry x="55" y="74" width="10" height="546" as="geometry" />
        </mxCell>
        <mxCell id="rkL_ggENawP8vmdbbOm3-6" value="Router" style="shape=umlLifeline;perimeter=lifelinePerimeter;whiteSpace=wrap;html=1;container=0;dropTarget=0;collapsible=0;recursiveResize=0;outlineConnect=0;portConstraint=eastwest;newEdgeStyle={&quot;edgeStyle&quot;:&quot;elbowEdgeStyle&quot;,&quot;elbow&quot;:&quot;vertical&quot;,&quot;curved&quot;:0,&quot;rounded&quot;:0};fontStyle=4;size=40;" parent="1" vertex="1">
          <mxGeometry x="-296" y="50" width="120" height="642" as="geometry" />
        </mxCell>
        <mxCell id="rkL_ggENawP8vmdbbOm3-7" value="" style="html=1;points=[];perimeter=orthogonalPerimeter;outlineConnect=0;targetShapes=umlLifeline;portConstraint=eastwest;newEdgeStyle={&quot;edgeStyle&quot;:&quot;elbowEdgeStyle&quot;,&quot;elbow&quot;:&quot;vertical&quot;,&quot;curved&quot;:0,&quot;rounded&quot;:0};fontStyle=4" parent="rkL_ggENawP8vmdbbOm3-6" vertex="1">
          <mxGeometry x="55" y="73" width="10" height="547" as="geometry" />
        </mxCell>
        <mxCell id="rkL_ggENawP8vmdbbOm3-8" value="DB" style="shape=umlLifeline;perimeter=lifelinePerimeter;whiteSpace=wrap;html=1;container=0;dropTarget=0;collapsible=0;recursiveResize=0;outlineConnect=0;portConstraint=eastwest;newEdgeStyle={&quot;edgeStyle&quot;:&quot;elbowEdgeStyle&quot;,&quot;elbow&quot;:&quot;vertical&quot;,&quot;curved&quot;:0,&quot;rounded&quot;:0};fontStyle=4" parent="1" vertex="1">
          <mxGeometry x="136" y="50" width="120" height="650" as="geometry" />
        </mxCell>
        <mxCell id="rkL_ggENawP8vmdbbOm3-9" value="" style="html=1;points=[];perimeter=orthogonalPerimeter;outlineConnect=0;targetShapes=umlLifeline;portConstraint=eastwest;newEdgeStyle={&quot;edgeStyle&quot;:&quot;elbowEdgeStyle&quot;,&quot;elbow&quot;:&quot;vertical&quot;,&quot;curved&quot;:0,&quot;rounded&quot;:0};fontStyle=4" parent="rkL_ggENawP8vmdbbOm3-8" vertex="1">
          <mxGeometry x="55" y="74" width="10" height="506" as="geometry" />
        </mxCell>
        <mxCell id="rkL_ggENawP8vmdbbOm3-10" value="React App" style="shape=umlLifeline;perimeter=lifelinePerimeter;whiteSpace=wrap;html=1;container=0;dropTarget=0;collapsible=0;recursiveResize=0;outlineConnect=0;portConstraint=eastwest;newEdgeStyle={&quot;edgeStyle&quot;:&quot;elbowEdgeStyle&quot;,&quot;elbow&quot;:&quot;vertical&quot;,&quot;curved&quot;:0,&quot;rounded&quot;:0};fontStyle=4;size=40;" parent="1" vertex="1">
          <mxGeometry x="-464" y="52" width="100" height="666" as="geometry" />
        </mxCell>
        <mxCell id="rkL_ggENawP8vmdbbOm3-11" value="&lt;span style=&quot;color: rgba(0, 0, 0, 0); font-family: monospace; font-size: 0px; text-align: start;&quot;&gt;%3CmxGraphModel%3E%3Croot%3E%3CmxCell%20id%3D%220%22%2F%3E%3CmxCell%20id%3D%221%22%20parent%3D%220%22%2F%3E%3CmxCell%20id%3D%222%22%20value%3D%22%22%20style%3D%22html%3D1%3Bpoints%3D%5B%5D%3Bperimeter%3DorthogonalPerimeter%3BoutlineConnect%3D0%3BtargetShapes%3DumlLifeline%3BportConstraint%3Deastwest%3BnewEdgeStyle%3D%7B%26quot%3BedgeStyle%26quot%3B%3A%26quot%3BelbowEdgeStyle%26quot%3B%2C%26quot%3Belbow%26quot%3B%3A%26quot%3Bvertical%26quot%3B%2C%26quot%3Bcurved%26quot%3B%3A0%2C%26quot%3Brounded%26quot%3B%3A0%7D%3BfontStyle%3D4%3Bcontainer%3D0%3B%22%20vertex%3D%221%22%20parent%3D%221%22%3E%3CmxGeometry%20x%3D%22-419%22%20y%3D%22123%22%20width%3D%2210%22%20height%3D%22356%22%20as%3D%22geometry%22%2F%3E%3C%2FmxCell%3E%3CmxCell%20id%3D%223%22%20value%3D%22%22%20style%3D%22html%3D1%3BverticalAlign%3Dbottom%3BendArrow%3Dblock%3Bdashed%3D1%3BendSize%3D8%3BedgeStyle%3DelbowEdgeStyle%3Belbow%3Dvertical%3Bcurved%3D0%3Brounded%3D0%3BendFill%3D1%3BfontStyle%3D4%3B%22%20edge%3D%221%22%20target%3D%222%22%20parent%3D%221%22%3E%3CmxGeometry%20x%3D%22-0.0945%22%20relative%3D%221%22%20as%3D%22geometry%22%3E%3CmxPoint%20x%3D%22-445%22%20y%3D%22254.26999999999998%22%20as%3D%22targetPoint%22%2F%3E%3CArray%20as%3D%22points%22%2F%3E%3CmxPoint%20x%3D%22-240%22%20y%3D%22254%22%20as%3D%22sourcePoint%22%2F%3E%3CmxPoint%20as%3D%22offset%22%2F%3E%3C%2FmxGeometry%3E%3C%2FmxCell%3E%3C%2Froot%3E%3C%2FmxGraphModel%3E&lt;/span&gt;" style="html=1;points=[];perimeter=orthogonalPerimeter;outlineConnect=0;targetShapes=umlLifeline;portConstraint=eastwest;newEdgeStyle={&quot;edgeStyle&quot;:&quot;elbowEdgeStyle&quot;,&quot;elbow&quot;:&quot;vertical&quot;,&quot;curved&quot;:0,&quot;rounded&quot;:0};fontStyle=4;container=0;" parent="1" vertex="1">
          <mxGeometry x="-419" y="126" width="10" height="356" as="geometry" />
        </mxCell>
        <mxCell id="rkL_ggENawP8vmdbbOm3-12" value="" style="html=1;verticalAlign=bottom;endArrow=block;edgeStyle=elbowEdgeStyle;elbow=horizontal;curved=0;rounded=0;fontStyle=4" parent="1" edge="1">
          <mxGeometry relative="1" as="geometry">
            <mxPoint x="-584" y="131" as="sourcePoint" />
            <Array as="points">
              <mxPoint x="-471.5" y="131" />
            </Array>
            <mxPoint x="-419" y="131" as="targetPoint" />
            <mxPoint as="offset" />
          </mxGeometry>
        </mxCell>
        <mxCell id="rkL_ggENawP8vmdbbOm3-13" value="" style="html=1;points=[];perimeter=orthogonalPerimeter;outlineConnect=0;targetShapes=umlLifeline;portConstraint=eastwest;newEdgeStyle={&quot;edgeStyle&quot;:&quot;elbowEdgeStyle&quot;,&quot;elbow&quot;:&quot;vertical&quot;,&quot;curved&quot;:0,&quot;rounded&quot;:0};fontStyle=4;container=0;" parent="1" vertex="1">
          <mxGeometry x="-595" y="125" width="10" height="545" as="geometry" />
        </mxCell>
        <mxCell id="rkL_ggENawP8vmdbbOm3-14" value="&lt;span style=&quot;color: rgb(0, 0, 0); font-family: Helvetica; font-size: 10px; font-style: normal; font-variant-ligatures: normal; font-variant-caps: normal; font-weight: 400; letter-spacing: normal; orphans: 2; text-align: center; text-indent: 0px; text-transform: none; widows: 2; word-spacing: 0px; -webkit-text-stroke-width: 0px; white-space: nowrap; background-color: rgb(255, 255, 255); text-decoration-thickness: initial; text-decoration-style: initial; text-decoration-color: initial; display: inline !important; float: none;&quot;&gt;Send update request&lt;/span&gt;" style="text;whiteSpace=wrap;html=1;" parent="1" vertex="1">
          <mxGeometry x="-559" y="110" width="150" height="40" as="geometry" />
        </mxCell>
        <mxCell id="rkL_ggENawP8vmdbbOm3-15" value="" style="group" parent="1" vertex="1" connectable="0">
          <mxGeometry x="-408" y="125" width="165" height="40" as="geometry" />
        </mxCell>
        <mxCell id="rkL_ggENawP8vmdbbOm3-16" value="" style="html=1;verticalAlign=bottom;endArrow=block;edgeStyle=elbowEdgeStyle;elbow=horizontal;curved=0;rounded=0;fontStyle=4" parent="rkL_ggENawP8vmdbbOm3-15" edge="1">
          <mxGeometry relative="1" as="geometry">
            <mxPoint y="25" as="sourcePoint" />
            <Array as="points">
              <mxPoint x="154" y="27" />
            </Array>
            <mxPoint x="165" y="25" as="targetPoint" />
            <mxPoint as="offset" />
          </mxGeometry>
        </mxCell>
        <mxCell id="rkL_ggENawP8vmdbbOm3-17" value="&lt;span style=&quot;color: rgb(0, 0, 0); font-family: Helvetica; font-size: 11px; font-style: normal; font-variant-ligatures: normal; font-variant-caps: normal; font-weight: 400; letter-spacing: normal; orphans: 2; text-align: left; text-indent: 0px; text-transform: none; widows: 2; word-spacing: 0px; -webkit-text-stroke-width: 0px; white-space: normal; background-color: rgb(251, 251, 251); text-decoration-thickness: initial; text-decoration-style: initial; text-decoration-color: initial; display: inline !important; float: none;&quot;&gt;Send PUT request&lt;/span&gt;" style="text;whiteSpace=wrap;html=1;" parent="rkL_ggENawP8vmdbbOm3-15" vertex="1">
          <mxGeometry x="28" width="130" height="40" as="geometry" />
        </mxCell>
        <mxCell id="rkL_ggENawP8vmdbbOm3-18" value="" style="group" parent="1" vertex="1" connectable="0">
          <mxGeometry x="-230" y="135" width="165" height="40" as="geometry" />
        </mxCell>
        <mxCell id="rkL_ggENawP8vmdbbOm3-19" value="" style="html=1;verticalAlign=bottom;endArrow=block;edgeStyle=elbowEdgeStyle;elbow=horizontal;curved=0;rounded=0;fontStyle=4" parent="rkL_ggENawP8vmdbbOm3-18" edge="1">
          <mxGeometry relative="1" as="geometry">
            <mxPoint y="25" as="sourcePoint" />
            <Array as="points">
              <mxPoint x="149" y="27" />
            </Array>
            <mxPoint x="204.5" y="25" as="targetPoint" />
            <mxPoint as="offset" />
          </mxGeometry>
        </mxCell>
        <mxCell id="rkL_ggENawP8vmdbbOm3-20" value="&lt;span style=&quot;color: rgb(0, 0, 0); font-family: Helvetica; font-size: 11px; font-style: normal; font-variant-ligatures: normal; font-variant-caps: normal; font-weight: 400; letter-spacing: normal; orphans: 2; text-align: left; text-indent: 0px; text-transform: none; widows: 2; word-spacing: 0px; -webkit-text-stroke-width: 0px; white-space: normal; background-color: rgb(251, 251, 251); text-decoration-thickness: initial; text-decoration-style: initial; text-decoration-color: initial; display: inline !important; float: none;&quot;&gt;update&lt;/span&gt;" style="text;whiteSpace=wrap;html=1;" parent="rkL_ggENawP8vmdbbOm3-18" vertex="1">
          <mxGeometry x="74" width="32" height="40" as="geometry" />
        </mxCell>
        <mxCell id="rkL_ggENawP8vmdbbOm3-21" value="" style="html=1;verticalAlign=bottom;endArrow=block;edgeStyle=elbowEdgeStyle;elbow=horizontal;curved=0;rounded=0;fontStyle=4;entryX=0.5;entryY=0.093;entryDx=0;entryDy=0;entryPerimeter=0;" parent="1" edge="1">
          <mxGeometry relative="1" as="geometry">
            <mxPoint x="-14" y="182" as="sourcePoint" />
            <Array as="points">
              <mxPoint x="134" y="184" />
            </Array>
            <mxPoint x="190" y="182.014" as="targetPoint" />
            <mxPoint as="offset" />
          </mxGeometry>
        </mxCell>
        <mxCell id="rkL_ggENawP8vmdbbOm3-22" value="Find comment by ID" style="text;whiteSpace=wrap;html=1;fontSize=11;" parent="1" vertex="1">
          <mxGeometry x="16" y="160" width="152" height="40" as="geometry" />
        </mxCell>
        <mxCell id="rkL_ggENawP8vmdbbOm3-23" value="" style="group" parent="1" vertex="1" connectable="0">
          <mxGeometry x="-17" y="210.00433522542318" width="176.0046946207683" height="36" as="geometry" />
        </mxCell>
        <mxCell id="rkL_ggENawP8vmdbbOm3-24" value="" style="html=1;verticalAlign=bottom;endArrow=block;dashed=1;endSize=8;edgeStyle=elbowEdgeStyle;elbow=vertical;curved=0;rounded=0;endFill=1;fontStyle=4;" parent="rkL_ggENawP8vmdbbOm3-23" edge="1">
          <mxGeometry x="-0.0945" relative="1" as="geometry">
            <mxPoint y="24.265664774576805" as="targetPoint" />
            <Array as="points" />
            <mxPoint x="205" y="23.995664774576824" as="sourcePoint" />
            <mxPoint as="offset" />
          </mxGeometry>
        </mxCell>
        <mxCell id="rkL_ggENawP8vmdbbOm3-25" value="&lt;span style=&quot;color: rgb(0, 0, 0); font-family: Helvetica; font-size: 10px; font-style: normal; font-variant-ligatures: normal; font-variant-caps: normal; font-weight: 400; letter-spacing: normal; orphans: 2; text-align: center; text-indent: 0px; text-transform: none; widows: 2; word-spacing: 0px; -webkit-text-stroke-width: 0px; white-space: nowrap; background-color: rgb(255, 255, 255); text-decoration-thickness: initial; text-decoration-style: initial; text-decoration-color: initial; display: inline !important; float: none;&quot;&gt;Return nothing&lt;/span&gt;" style="text;whiteSpace=wrap;html=1;container=0;" parent="rkL_ggENawP8vmdbbOm3-23" vertex="1">
          <mxGeometry x="55.004694620768305" width="121" height="36" as="geometry" />
        </mxCell>
        <mxCell id="rkL_ggENawP8vmdbbOm3-26" value="&lt;font style=&quot;font-size: 12px;&quot;&gt;Comment not found&lt;/font&gt;" style="shape=umlFrame;whiteSpace=wrap;html=1;pointerEvents=0;width=153;height=16;" parent="1" vertex="1">
          <mxGeometry x="-642" y="210" width="870" height="105" as="geometry" />
        </mxCell>
        <mxCell id="rkL_ggENawP8vmdbbOm3-27" value="&lt;span style=&quot;color: rgb(0, 0, 0); font-family: Helvetica; font-size: 10px; font-style: normal; font-variant-ligatures: normal; font-variant-caps: normal; font-weight: 400; letter-spacing: normal; orphans: 2; text-align: center; text-indent: 0px; text-transform: none; widows: 2; word-spacing: 0px; -webkit-text-stroke-width: 0px; white-space: nowrap; background-color: rgb(255, 255, 255); text-decoration-thickness: initial; text-decoration-style: initial; text-decoration-color: initial; display: inline !important; float: none;&quot;&gt;Return not found message&lt;/span&gt;" style="text;whiteSpace=wrap;html=1;container=0;" parent="1" vertex="1">
          <mxGeometry x="-176.9953053792317" y="220.00433522542318" width="121" height="36" as="geometry" />
        </mxCell>
        <mxCell id="rkL_ggENawP8vmdbbOm3-28" value="" style="html=1;verticalAlign=bottom;endArrow=block;dashed=1;endSize=8;edgeStyle=elbowEdgeStyle;elbow=vertical;curved=0;rounded=0;endFill=1;fontStyle=4;" parent="1" edge="1">
          <mxGeometry x="-0.0945" relative="1" as="geometry">
            <mxPoint x="-231" y="245.40999999999997" as="targetPoint" />
            <Array as="points" />
            <mxPoint x="-26" y="245.14" as="sourcePoint" />
            <mxPoint as="offset" />
          </mxGeometry>
        </mxCell>
        <mxCell id="rkL_ggENawP8vmdbbOm3-29" value="&lt;font style=&quot;font-size: 12px;&quot;&gt;Unauthorized&lt;/font&gt;" style="shape=umlFrame;whiteSpace=wrap;html=1;pointerEvents=0;width=90;height=18;" parent="1" vertex="1">
          <mxGeometry x="-640" y="332.5" width="870" height="105" as="geometry" />
        </mxCell>
        <mxCell id="rkL_ggENawP8vmdbbOm3-30" value="" style="group" parent="1" vertex="1" connectable="0">
          <mxGeometry x="-15" y="340.0043352254232" width="176.0046946207683" height="36" as="geometry" />
        </mxCell>
        <mxCell id="rkL_ggENawP8vmdbbOm3-31" value="" style="html=1;verticalAlign=bottom;endArrow=block;dashed=1;endSize=8;edgeStyle=elbowEdgeStyle;elbow=vertical;curved=0;rounded=0;endFill=1;fontStyle=4;" parent="rkL_ggENawP8vmdbbOm3-30" edge="1">
          <mxGeometry x="-0.0945" relative="1" as="geometry">
            <mxPoint y="24.265664774576805" as="targetPoint" />
            <Array as="points" />
            <mxPoint x="205" y="23.995664774576824" as="sourcePoint" />
            <mxPoint as="offset" />
          </mxGeometry>
        </mxCell>
        <mxCell id="rkL_ggENawP8vmdbbOm3-32" value="&lt;span style=&quot;color: rgb(0, 0, 0); font-family: Helvetica; font-size: 10px; font-style: normal; font-variant-ligatures: normal; font-variant-caps: normal; font-weight: 400; letter-spacing: normal; orphans: 2; text-align: center; text-indent: 0px; text-transform: none; widows: 2; word-spacing: 0px; -webkit-text-stroke-width: 0px; white-space: nowrap; background-color: rgb(255, 255, 255); text-decoration-thickness: initial; text-decoration-style: initial; text-decoration-color: initial; display: inline !important; float: none;&quot;&gt;Return 401&lt;/span&gt;" style="text;whiteSpace=wrap;html=1;container=0;" parent="rkL_ggENawP8vmdbbOm3-30" vertex="1">
          <mxGeometry x="55.004694620768305" width="121" height="36" as="geometry" />
        </mxCell>
        <mxCell id="rkL_ggENawP8vmdbbOm3-33" value="" style="group" parent="1" vertex="1" connectable="0">
          <mxGeometry x="-230" y="360.0043352254232" width="176.0046946207683" height="36" as="geometry" />
        </mxCell>
        <mxCell id="rkL_ggENawP8vmdbbOm3-34" value="" style="html=1;verticalAlign=bottom;endArrow=block;dashed=1;endSize=8;edgeStyle=elbowEdgeStyle;elbow=vertical;curved=0;rounded=0;endFill=1;fontStyle=4;" parent="rkL_ggENawP8vmdbbOm3-33" edge="1">
          <mxGeometry x="-0.0945" relative="1" as="geometry">
            <mxPoint y="24.265664774576805" as="targetPoint" />
            <Array as="points" />
            <mxPoint x="205" y="23.995664774576824" as="sourcePoint" />
            <mxPoint as="offset" />
          </mxGeometry>
        </mxCell>
        <mxCell id="rkL_ggENawP8vmdbbOm3-35" value="&lt;span style=&quot;color: rgb(0, 0, 0); font-family: Helvetica; font-size: 10px; font-style: normal; font-variant-ligatures: normal; font-variant-caps: normal; font-weight: 400; letter-spacing: normal; orphans: 2; text-align: center; text-indent: 0px; text-transform: none; widows: 2; word-spacing: 0px; -webkit-text-stroke-width: 0px; white-space: nowrap; background-color: rgb(255, 255, 255); text-decoration-thickness: initial; text-decoration-style: initial; text-decoration-color: initial; display: inline !important; float: none;&quot;&gt;Return 401&lt;/span&gt;" style="text;whiteSpace=wrap;html=1;container=0;" parent="rkL_ggENawP8vmdbbOm3-33" vertex="1">
          <mxGeometry x="55.004694620768305" width="121" height="36" as="geometry" />
        </mxCell>
        <mxCell id="rkL_ggENawP8vmdbbOm3-36" value="" style="html=1;verticalAlign=bottom;endArrow=block;dashed=1;endSize=8;edgeStyle=elbowEdgeStyle;elbow=vertical;curved=0;rounded=0;endFill=1;fontStyle=4;" parent="1" edge="1">
          <mxGeometry x="-0.0945" relative="1" as="geometry">
            <mxPoint x="-410" y="399" as="targetPoint" />
            <Array as="points" />
            <mxPoint x="-241" y="399" as="sourcePoint" />
            <mxPoint as="offset" />
          </mxGeometry>
        </mxCell>
        <mxCell id="rkL_ggENawP8vmdbbOm3-37" value="" style="html=1;verticalAlign=bottom;endArrow=block;dashed=1;endSize=8;edgeStyle=elbowEdgeStyle;elbow=vertical;curved=0;rounded=0;endFill=1;fontStyle=4;exitX=1;exitY=0.75;exitDx=0;exitDy=0;" parent="1" source="rkL_ggENawP8vmdbbOm3-50" target="rkL_ggENawP8vmdbbOm3-13" edge="1">
          <mxGeometry x="-0.0945" relative="1" as="geometry">
            <mxPoint x="-584" y="404.27" as="targetPoint" />
            <Array as="points" />
            <mxPoint x="-528.9953053792317" y="404.5" as="sourcePoint" />
            <mxPoint as="offset" />
          </mxGeometry>
        </mxCell>
        <mxCell id="rkL_ggENawP8vmdbbOm3-41" value="React App" style="shape=umlLifeline;perimeter=lifelinePerimeter;whiteSpace=wrap;html=1;container=0;dropTarget=0;collapsible=0;recursiveResize=0;outlineConnect=0;portConstraint=eastwest;newEdgeStyle={&quot;edgeStyle&quot;:&quot;elbowEdgeStyle&quot;,&quot;elbow&quot;:&quot;vertical&quot;,&quot;curved&quot;:0,&quot;rounded&quot;:0};fontStyle=4;size=40;" parent="1" vertex="1">
          <mxGeometry x="-464" y="53" width="100" height="657" as="geometry" />
        </mxCell>
        <mxCell id="rkL_ggENawP8vmdbbOm3-42" value="" style="html=1;points=[];perimeter=orthogonalPerimeter;outlineConnect=0;targetShapes=umlLifeline;portConstraint=eastwest;newEdgeStyle={&quot;edgeStyle&quot;:&quot;elbowEdgeStyle&quot;,&quot;elbow&quot;:&quot;vertical&quot;,&quot;curved&quot;:0,&quot;rounded&quot;:0};fontStyle=4;container=0;" parent="1" vertex="1">
          <mxGeometry x="-419" y="127" width="10" height="543" as="geometry" />
        </mxCell>
        <mxCell id="rkL_ggENawP8vmdbbOm3-44" value="" style="html=1;verticalAlign=bottom;endArrow=block;dashed=1;endSize=8;edgeStyle=elbowEdgeStyle;elbow=vertical;curved=0;rounded=0;endFill=1;fontStyle=4;" parent="1" target="rkL_ggENawP8vmdbbOm3-42" edge="1">
          <mxGeometry x="-0.0945" relative="1" as="geometry">
            <mxPoint x="-445" y="258.27" as="targetPoint" />
            <Array as="points" />
            <mxPoint x="-240" y="258" as="sourcePoint" />
            <mxPoint as="offset" />
          </mxGeometry>
        </mxCell>
        <mxCell id="rkL_ggENawP8vmdbbOm3-45" value="&lt;span style=&quot;font-size: 10px; text-align: center; text-wrap: nowrap; background-color: rgb(255, 255, 255);&quot;&gt;Return not found message&lt;/span&gt;" style="text;whiteSpace=wrap;html=1;container=0;" parent="1" vertex="1">
          <mxGeometry x="-389.9953053792317" y="234.00433522542318" width="121" height="36" as="geometry" />
        </mxCell>
        <mxCell id="rkL_ggENawP8vmdbbOm3-46" value="" style="html=1;verticalAlign=bottom;endArrow=block;dashed=1;endSize=8;edgeStyle=elbowEdgeStyle;elbow=vertical;curved=0;rounded=0;endFill=1;fontStyle=4;" parent="1" edge="1">
          <mxGeometry x="-0.0945" relative="1" as="geometry">
            <mxPoint x="-584" y="274" as="targetPoint" />
            <Array as="points" />
            <mxPoint x="-418" y="274" as="sourcePoint" />
            <mxPoint as="offset" />
          </mxGeometry>
        </mxCell>
        <mxCell id="rkL_ggENawP8vmdbbOm3-47" value="&lt;span style=&quot;color: rgb(0, 0, 0); font-family: Helvetica; font-size: 10px; font-style: normal; font-variant-ligatures: normal; font-variant-caps: normal; font-weight: 400; letter-spacing: normal; orphans: 2; text-align: center; text-indent: 0px; text-transform: none; widows: 2; word-spacing: 0px; -webkit-text-stroke-width: 0px; white-space: nowrap; background-color: rgb(255, 255, 255); text-decoration-thickness: initial; text-decoration-style: initial; text-decoration-color: initial; display: inline !important; float: none;&quot;&gt;Show not found message&lt;/span&gt;" style="text;whiteSpace=wrap;html=1;" parent="1" vertex="1">
          <mxGeometry x="-554" y="254" width="150" height="40" as="geometry" />
        </mxCell>
        <mxCell id="rkL_ggENawP8vmdbbOm3-48" value="&lt;span style=&quot;color: rgb(0, 0, 0); font-family: Helvetica; font-size: 10px; font-style: normal; font-variant-ligatures: normal; font-variant-caps: normal; font-weight: 400; letter-spacing: normal; orphans: 2; text-align: center; text-indent: 0px; text-transform: none; widows: 2; word-spacing: 0px; -webkit-text-stroke-width: 0px; white-space: nowrap; background-color: rgb(255, 255, 255); text-decoration-thickness: initial; text-decoration-style: initial; text-decoration-color: initial; display: inline !important; float: none;&quot;&gt;Return Unauthorized message&lt;/span&gt;" style="text;whiteSpace=wrap;html=1;" parent="1" vertex="1">
          <mxGeometry x="-392" y="377" width="80" height="40" as="geometry" />
        </mxCell>
        <mxCell id="rkL_ggENawP8vmdbbOm3-49" value="" style="group" parent="1" vertex="1" connectable="0">
          <mxGeometry x="-595" y="381.0043352254232" width="176.0046946207683" height="36" as="geometry" />
        </mxCell>
        <mxCell id="rkL_ggENawP8vmdbbOm3-50" value="&lt;span style=&quot;color: rgb(0, 0, 0); font-family: Helvetica; font-size: 10px; font-style: normal; font-variant-ligatures: normal; font-variant-caps: normal; font-weight: 400; letter-spacing: normal; orphans: 2; text-align: center; text-indent: 0px; text-transform: none; widows: 2; word-spacing: 0px; -webkit-text-stroke-width: 0px; white-space: nowrap; background-color: rgb(255, 255, 255); text-decoration-thickness: initial; text-decoration-style: initial; text-decoration-color: initial; display: inline !important; float: none;&quot;&gt;Show&amp;nbsp;&lt;/span&gt;&lt;span style=&quot;font-size: 10px; text-align: center; text-wrap: nowrap; background-color: rgb(255, 255, 255);&quot;&gt;Unauthorized message&lt;/span&gt;" style="text;whiteSpace=wrap;html=1;container=0;" parent="rkL_ggENawP8vmdbbOm3-49" vertex="1">
          <mxGeometry x="30" width="146" height="36" as="geometry" />
        </mxCell>
        <mxCell id="rkL_ggENawP8vmdbbOm3-51" value="Success" style="shape=umlFrame;whiteSpace=wrap;html=1;pointerEvents=0;width=90;height=18;" parent="1" vertex="1">
          <mxGeometry x="-640" y="461" width="880" height="249" as="geometry" />
        </mxCell>
        <mxCell id="rkL_ggENawP8vmdbbOm3-52" value="" style="group" parent="1" vertex="1" connectable="0">
          <mxGeometry x="-10" y="461.0043352254232" width="188" height="36" as="geometry" />
        </mxCell>
        <mxCell id="rkL_ggENawP8vmdbbOm3-53" value="" style="html=1;verticalAlign=bottom;endArrow=block;dashed=1;endSize=8;edgeStyle=elbowEdgeStyle;elbow=vertical;curved=0;rounded=0;endFill=1;fontStyle=4;" parent="rkL_ggENawP8vmdbbOm3-52" edge="1">
          <mxGeometry x="-0.0945" relative="1" as="geometry">
            <mxPoint x="-5" y="24.265664774576805" as="targetPoint" />
            <Array as="points" />
            <mxPoint x="200" y="23.995664774576824" as="sourcePoint" />
            <mxPoint as="offset" />
          </mxGeometry>
        </mxCell>
        <mxCell id="rkL_ggENawP8vmdbbOm3-54" value="&lt;span style=&quot;font-size: 10px; text-align: center; text-wrap: nowrap; background-color: rgb(255, 255, 255);&quot;&gt;Return comment details&lt;/span&gt;" style="text;whiteSpace=wrap;html=1;container=0;" parent="rkL_ggENawP8vmdbbOm3-52" vertex="1">
          <mxGeometry x="55.004694620768305" width="121" height="36" as="geometry" />
        </mxCell>
        <mxCell id="rkL_ggENawP8vmdbbOm3-55" value="" style="group" parent="1" vertex="1" connectable="0">
          <mxGeometry x="-410" y="529.75" width="163.5" height="36" as="geometry" />
        </mxCell>
        <mxCell id="rkL_ggENawP8vmdbbOm3-56" value="" style="html=1;verticalAlign=bottom;endArrow=block;dashed=1;endSize=8;edgeStyle=elbowEdgeStyle;elbow=vertical;curved=0;rounded=0;endFill=1;fontStyle=4;" parent="rkL_ggENawP8vmdbbOm3-55" source="rkL_ggENawP8vmdbbOm3-7" edge="1">
          <mxGeometry x="-0.0945" relative="1" as="geometry">
            <mxPoint y="24.265664774576805" as="targetPoint" />
            <Array as="points" />
            <mxPoint x="190.43526124242928" y="23.995664774576824" as="sourcePoint" />
            <mxPoint as="offset" />
          </mxGeometry>
        </mxCell>
        <mxCell id="rkL_ggENawP8vmdbbOm3-57" value="&lt;span style=&quot;font-size: 10px; text-align: center; text-wrap: nowrap; background-color: rgb(255, 255, 255);&quot;&gt;Return comment details&lt;/span&gt;" style="text;whiteSpace=wrap;html=1;container=0;" parent="rkL_ggENawP8vmdbbOm3-55" vertex="1">
          <mxGeometry x="51.09674824227345" width="112.40325175772655" height="36" as="geometry" />
        </mxCell>
        <mxCell id="rkL_ggENawP8vmdbbOm3-73" value="" style="group" parent="1" vertex="1" connectable="0">
          <mxGeometry x="-584" y="529.75" width="165" height="32.5" as="geometry" />
        </mxCell>
        <mxCell id="rkL_ggENawP8vmdbbOm3-71" value="" style="html=1;verticalAlign=bottom;endArrow=block;edgeStyle=elbowEdgeStyle;elbow=horizontal;curved=0;rounded=0;fontStyle=4" parent="rkL_ggENawP8vmdbbOm3-73" edge="1">
          <mxGeometry relative="1" as="geometry">
            <mxPoint y="32.5" as="sourcePoint" />
            <Array as="points">
              <mxPoint x="112.5" y="32.5" />
            </Array>
            <mxPoint x="165" y="32.5" as="targetPoint" />
            <mxPoint as="offset" />
          </mxGeometry>
        </mxCell>
        <mxCell id="rkL_ggENawP8vmdbbOm3-40" value="&lt;div style=&quot;text-align: center; font-size: 10px;&quot;&gt;Update comment&lt;/div&gt;" style="text;whiteSpace=wrap;html=1;container=0;fontSize=10;" parent="rkL_ggENawP8vmdbbOm3-73" vertex="1">
          <mxGeometry x="7" width="153" height="27" as="geometry" />
        </mxCell>
        <mxCell id="rkL_ggENawP8vmdbbOm3-91" value="" style="group" parent="1" vertex="1" connectable="0">
          <mxGeometry x="-14" y="493" width="204" height="40" as="geometry" />
        </mxCell>
        <mxCell id="rkL_ggENawP8vmdbbOm3-89" value="" style="html=1;verticalAlign=bottom;endArrow=block;edgeStyle=elbowEdgeStyle;elbow=horizontal;curved=0;rounded=0;fontStyle=4;entryX=0.5;entryY=0.093;entryDx=0;entryDy=0;entryPerimeter=0;" parent="rkL_ggENawP8vmdbbOm3-91" edge="1">
          <mxGeometry relative="1" as="geometry">
            <mxPoint y="22" as="sourcePoint" />
            <Array as="points">
              <mxPoint x="148" y="24" />
            </Array>
            <mxPoint x="204" y="22.01400000000001" as="targetPoint" />
            <mxPoint as="offset" />
          </mxGeometry>
        </mxCell>
        <mxCell id="rkL_ggENawP8vmdbbOm3-90" value="Find comment by ID" style="text;whiteSpace=wrap;html=1;fontSize=11;" parent="rkL_ggENawP8vmdbbOm3-91" vertex="1">
          <mxGeometry x="32" width="152" height="40" as="geometry" />
        </mxCell>
        <mxCell id="rkL_ggENawP8vmdbbOm3-92" value="" style="group" parent="1" vertex="1" connectable="0">
          <mxGeometry x="-11" y="519.0043352254231" width="188" height="36" as="geometry" />
        </mxCell>
        <mxCell id="rkL_ggENawP8vmdbbOm3-93" value="" style="html=1;verticalAlign=bottom;endArrow=block;dashed=1;endSize=8;edgeStyle=elbowEdgeStyle;elbow=vertical;curved=0;rounded=0;endFill=1;fontStyle=4;" parent="rkL_ggENawP8vmdbbOm3-92" edge="1">
          <mxGeometry x="-0.0945" relative="1" as="geometry">
            <mxPoint x="-5" y="24.265664774576805" as="targetPoint" />
            <Array as="points" />
            <mxPoint x="200" y="23.995664774576824" as="sourcePoint" />
            <mxPoint as="offset" />
          </mxGeometry>
        </mxCell>
        <mxCell id="rkL_ggENawP8vmdbbOm3-94" value="&lt;div style=&quot;text-align: center;&quot;&gt;&lt;span style=&quot;font-size: 10px; text-wrap: nowrap; background-color: rgb(255, 255, 255);&quot;&gt;Ownership confirm&lt;/span&gt;&lt;/div&gt;" style="text;whiteSpace=wrap;html=1;container=0;" parent="rkL_ggENawP8vmdbbOm3-92" vertex="1">
          <mxGeometry x="55.004694620768305" width="121" height="36" as="geometry" />
        </mxCell>
        <mxCell id="rkL_ggENawP8vmdbbOm3-96" value="" style="html=1;verticalAlign=bottom;endArrow=block;edgeStyle=elbowEdgeStyle;elbow=horizontal;curved=0;rounded=0;fontStyle=4" parent="1" edge="1">
          <mxGeometry relative="1" as="geometry">
            <mxPoint x="-408" y="594.75" as="sourcePoint" />
            <Array as="points">
              <mxPoint x="-295.5" y="594.75" />
            </Array>
            <mxPoint x="-243" y="594.75" as="targetPoint" />
            <mxPoint as="offset" />
          </mxGeometry>
        </mxCell>
        <mxCell id="rkL_ggENawP8vmdbbOm3-97" value="&lt;div style=&quot;text-align: center; font-size: 10px;&quot;&gt;Update comment&lt;/div&gt;" style="text;whiteSpace=wrap;html=1;container=0;fontSize=10;" parent="1" vertex="1">
          <mxGeometry x="-396" y="568.5" width="153" height="27" as="geometry" />
        </mxCell>
        <mxCell id="rkL_ggENawP8vmdbbOm3-98" value="" style="html=1;verticalAlign=bottom;endArrow=block;edgeStyle=elbowEdgeStyle;elbow=horizontal;curved=0;rounded=0;fontStyle=4" parent="1" target="rkL_ggENawP8vmdbbOm3-5" edge="1">
          <mxGeometry relative="1" as="geometry">
            <mxPoint x="-231" y="598.25" as="sourcePoint" />
            <Array as="points">
              <mxPoint x="-118.5" y="598.25" />
            </Array>
            <mxPoint x="-66" y="598.25" as="targetPoint" />
            <mxPoint as="offset" />
          </mxGeometry>
        </mxCell>
        <mxCell id="rkL_ggENawP8vmdbbOm3-99" value="&lt;div style=&quot;text-align: center; font-size: 10px;&quot;&gt;Update comment&lt;/div&gt;" style="text;whiteSpace=wrap;html=1;container=0;fontSize=10;" parent="1" vertex="1">
          <mxGeometry x="-193" y="576" width="153" height="27" as="geometry" />
        </mxCell>
        <mxCell id="rkL_ggENawP8vmdbbOm3-100" value="" style="group" parent="1" vertex="1" connectable="0">
          <mxGeometry x="-10" y="590.0043352254231" width="188" height="36" as="geometry" />
        </mxCell>
        <mxCell id="rkL_ggENawP8vmdbbOm3-101" value="" style="html=1;verticalAlign=bottom;endArrow=block;dashed=1;endSize=8;edgeStyle=elbowEdgeStyle;elbow=vertical;curved=0;rounded=0;endFill=1;fontStyle=4;" parent="rkL_ggENawP8vmdbbOm3-100" edge="1">
          <mxGeometry x="-0.0945" relative="1" as="geometry">
            <mxPoint x="-5" y="24.265664774576805" as="targetPoint" />
            <Array as="points" />
            <mxPoint x="200" y="23.995664774576824" as="sourcePoint" />
            <mxPoint as="offset" />
          </mxGeometry>
        </mxCell>
        <mxCell id="rkL_ggENawP8vmdbbOm3-102" value="&lt;div style=&quot;text-align: center;&quot;&gt;&lt;span style=&quot;font-size: 10px; text-wrap: nowrap; background-color: rgb(255, 255, 255);&quot;&gt;Save update comment&lt;/span&gt;&lt;/div&gt;" style="text;whiteSpace=wrap;html=1;container=0;" parent="rkL_ggENawP8vmdbbOm3-100" vertex="1">
          <mxGeometry x="55.004694620768305" width="121" height="36" as="geometry" />
        </mxCell>
        <mxCell id="rkL_ggENawP8vmdbbOm3-39" value="" style="html=1;verticalAlign=bottom;endArrow=block;dashed=1;endSize=8;edgeStyle=elbowEdgeStyle;elbow=vertical;curved=0;rounded=0;endFill=1;fontStyle=4;" parent="1" edge="1">
          <mxGeometry x="-0.0945" relative="1" as="geometry">
            <mxPoint x="-231" y="551.27" as="targetPoint" />
            <Array as="points" />
            <mxPoint x="-26" y="551" as="sourcePoint" />
            <mxPoint as="offset" />
          </mxGeometry>
        </mxCell>
        <mxCell id="rkL_ggENawP8vmdbbOm3-77" value="&lt;span style=&quot;color: rgb(0, 0, 0); font-family: Helvetica; font-size: 10px; font-style: normal; font-variant-ligatures: normal; font-variant-caps: normal; font-weight: 400; letter-spacing: normal; orphans: 2; text-align: center; text-indent: 0px; text-transform: none; widows: 2; word-spacing: 0px; -webkit-text-stroke-width: 0px; white-space: nowrap; background-color: rgb(255, 255, 255); text-decoration-thickness: initial; text-decoration-style: initial; text-decoration-color: initial; display: inline !important; float: none;&quot;&gt;Return comment details&lt;/span&gt;" style="text;whiteSpace=wrap;html=1;" parent="1" vertex="1">
          <mxGeometry x="-175" y="528.5" width="140" height="40" as="geometry" />
        </mxCell>
        <mxCell id="rkL_ggENawP8vmdbbOm3-106" value="" style="html=1;verticalAlign=bottom;endArrow=block;dashed=1;endSize=8;edgeStyle=elbowEdgeStyle;elbow=vertical;curved=0;rounded=0;endFill=1;fontStyle=4;" parent="1" edge="1">
          <mxGeometry x="-0.0945" relative="1" as="geometry">
            <mxPoint x="-230" y="642.77" as="targetPoint" />
            <Array as="points" />
            <mxPoint x="-25" y="642.5" as="sourcePoint" />
            <mxPoint as="offset" />
          </mxGeometry>
        </mxCell>
        <mxCell id="rkL_ggENawP8vmdbbOm3-107" value="&lt;span style=&quot;font-size: 10px; text-align: center; text-wrap: nowrap; background-color: rgb(255, 255, 255);&quot;&gt;Return update comment&amp;nbsp;&lt;/span&gt;" style="text;whiteSpace=wrap;html=1;" parent="1" vertex="1">
          <mxGeometry x="-174" y="620" width="140" height="40" as="geometry" />
        </mxCell>
        <mxCell id="rkL_ggENawP8vmdbbOm3-114" value="" style="html=1;verticalAlign=bottom;endArrow=block;dashed=1;endSize=8;edgeStyle=elbowEdgeStyle;elbow=vertical;curved=0;rounded=0;endFill=1;fontStyle=4;" parent="1" source="rkL_ggENawP8vmdbbOm3-7" edge="1">
          <mxGeometry x="-0.0945" relative="1" as="geometry">
            <mxPoint x="-409" y="651" as="targetPoint" />
            <Array as="points" />
            <mxPoint x="-246" y="651" as="sourcePoint" />
            <mxPoint as="offset" />
          </mxGeometry>
        </mxCell>
        <mxCell id="rkL_ggENawP8vmdbbOm3-118" value="&lt;span style=&quot;color: rgb(0, 0, 0); font-family: Helvetica; font-size: 10px; font-style: normal; font-variant-ligatures: normal; font-variant-caps: normal; font-weight: 400; letter-spacing: normal; orphans: 2; text-align: center; text-indent: 0px; text-transform: none; widows: 2; word-spacing: 0px; -webkit-text-stroke-width: 0px; white-space: nowrap; background-color: rgb(255, 255, 255); text-decoration-thickness: initial; text-decoration-style: initial; text-decoration-color: initial; display: inline !important; float: none;&quot;&gt;Display update comment&amp;nbsp;&lt;/span&gt;" style="text;whiteSpace=wrap;html=1;" parent="1" vertex="1">
          <mxGeometry x="-370" y="626" width="140" height="40" as="geometry" />
        </mxCell>
        <mxCell id="rkL_ggENawP8vmdbbOm3-119" value="" style="html=1;verticalAlign=bottom;endArrow=block;dashed=1;endSize=8;edgeStyle=elbowEdgeStyle;elbow=vertical;curved=0;rounded=0;endFill=1;fontStyle=4;" parent="1" edge="1">
          <mxGeometry x="-0.0945" relative="1" as="geometry">
            <mxPoint x="-585" y="665" as="targetPoint" />
            <Array as="points" />
            <mxPoint x="-420" y="665" as="sourcePoint" />
            <mxPoint as="offset" />
          </mxGeometry>
        </mxCell>
        <mxCell id="rkL_ggENawP8vmdbbOm3-120" value="&lt;span style=&quot;color: rgb(0, 0, 0); font-family: Helvetica; font-size: 10px; font-style: normal; font-variant-ligatures: normal; font-variant-caps: normal; font-weight: 400; letter-spacing: normal; orphans: 2; text-align: center; text-indent: 0px; text-transform: none; widows: 2; word-spacing: 0px; -webkit-text-stroke-width: 0px; white-space: nowrap; background-color: rgb(255, 255, 255); text-decoration-thickness: initial; text-decoration-style: initial; text-decoration-color: initial; display: inline !important; float: none;&quot;&gt;Display update comment&amp;nbsp;&lt;/span&gt;" style="text;whiteSpace=wrap;html=1;" parent="1" vertex="1">
          <mxGeometry x="-546" y="640" width="126" height="20" as="geometry" />
        </mxCell>
      </root>
    </mxGraphModel>
  </diagram>
</mxfile>
